HIERARCHY
ROOT Hips
{
	OFFSET 0.00000 0.00000 0.00000
	CHANNELS 6 Xposition Yposition Zposition Zrotation Yrotation Xrotation 
	JOINT LHipJoint
	{
		OFFSET 0 0 0
		CHANNELS 3 Zrotation Yrotation Xrotation
		JOINT LeftUpLeg
		{
			OFFSET 1.52977 -1.71332 0.88991
			CHANNELS 3 Zrotation Yrotation Xrotation
			JOINT LeftLeg
			{
				OFFSET 2.23949 -6.15296 0.00000
				CHANNELS 3 Zrotation Yrotation Xrotation
				JOINT LeftFoot
				{
					OFFSET 2.68396 -7.37412 0.00000
					CHANNELS 3 Zrotation Yrotation Xrotation
					JOINT LeftToeBase
					{
						OFFSET 0.20538 -0.56428 2.52710
						CHANNELS 3 Zrotation Yrotation Xrotation
						End Site
						{
							OFFSET 0.00000 -0.00000 1.29919
						}
					}
				}
			}
		}
	}
	JOINT RHipJoint
	{
		OFFSET 0 0 0
		CHANNELS 3 Zrotation Yrotation Xrotation
		JOINT RightUpLeg
		{
			OFFSET -1.45689 -1.71333 0.88991
			CHANNELS 3 Zrotation Yrotation Xrotation
			JOINT RightLeg
			{
				OFFSET -2.36700 -6.50329 0.00000
				CHANNELS 3 Zrotation Yrotation Xrotation
				JOINT RightFoot
				{
					OFFSET -2.69814 -7.41308 0.00000
					CHANNELS 3 Zrotation Yrotation Xrotation
					JOINT RightToeBase
					{
						OFFSET -0.18734 -0.51471 2.37479
						CHANNELS 3 Zrotation Yrotation Xrotation
						End Site
						{
							OFFSET -0.00000 -0.00000 1.22113
						}
					}
				}
			}
		}
	}
	JOINT LowerBack
	{
		OFFSET 0 0 0
		CHANNELS 3 Zrotation Yrotation Xrotation
		JOINT Spine
		{
			OFFSET 0.04294 2.14638 -0.31163
			CHANNELS 3 Zrotation Yrotation Xrotation
			JOINT Spine1
			{
				OFFSET -0.00400 2.17216 0.01486
				CHANNELS 3 Zrotation Yrotation Xrotation
				JOINT Neck
				{
					OFFSET 0 0 0
					CHANNELS 3 Zrotation Yrotation Xrotation
					JOINT Neck1
					{
						OFFSET 0.03869 1.76598 0.14916
						CHANNELS 3 Zrotation Yrotation Xrotation
						JOINT Head
						{
							OFFSET -0.00760 1.75513 -0.18948
							CHANNELS 3 Zrotation Yrotation Xrotation
							End Site
							{
								OFFSET -0.00601 1.82444 -0.08310
							}
						}
					}
				}
				JOINT LeftShoulder
				{
					OFFSET 0 0 0
					CHANNELS 3 Zrotation Yrotation Xrotation
					JOINT LeftArm
					{
						OFFSET 3.73696 0.92058 0.01733
						CHANNELS 3 Zrotation Yrotation Xrotation
						JOINT LeftForeArm
						{
							OFFSET 5.22771 -0.00000 0.00000
							CHANNELS 3 Zrotation Yrotation Xrotation
							JOINT LeftHand
							{
								OFFSET 3.45251 -0.00000 0.00000
								CHANNELS 3 Zrotation Yrotation Xrotation
								JOINT LeftFingerBase
								{
									OFFSET 0 0 0
									CHANNELS 3 Zrotation Yrotation Xrotation
									JOINT LeftHandIndex1
									{
										OFFSET 0.55212 -0.00000 0.00000
										CHANNELS 3 Zrotation Yrotation Xrotation
										End Site
										{
											OFFSET 0.44513 -0.00000 0.00000
										}
									}
								}
								JOINT LThumb
								{
									OFFSET 0 0 0
									CHANNELS 3 Zrotation Yrotation Xrotation
									End Site
									{
										OFFSET 0.45193 -0.00000 0.45193
									}
								}
							}
						}
					}
				}
				JOINT RightShoulder
				{
					OFFSET 0 0 0
					CHANNELS 3 Zrotation Yrotation Xrotation
					JOINT RightArm
					{
						OFFSET -3.63819 0.83094 -0.13694
						CHANNELS 3 Zrotation Yrotation Xrotation
						JOINT RightForeArm
						{
							OFFSET -5.23980 -0.00000 -0.00000
							CHANNELS 3 Zrotation Yrotation Xrotation
							JOINT RightHand
							{
								OFFSET -3.48042 -0.00000 -0.00000
								CHANNELS 3 Zrotation Yrotation Xrotation
								JOINT RightFingerBase
								{
									OFFSET 0 0 0
									CHANNELS 3 Zrotation Yrotation Xrotation
									JOINT RightHandIndex1
									{
										OFFSET -0.61871 -0.00000 0.00000
										CHANNELS 3 Zrotation Yrotation Xrotation
										End Site
										{
											OFFSET -0.49882 -0.00000 0.00000
										}
									}
								}
								JOINT RThumb
								{
									OFFSET 0 0 0
									CHANNELS 3 Zrotation Yrotation Xrotation
									End Site
									{
										OFFSET -0.50644 -0.00000 0.50644
									}
								}
							}
						}
					}
				}
			}
		}
	}
}
MOTION
Frames: 15
Frame Time: .0083333
-34.2615 17.3619 -6.3363 0 0 0 0 0 0 -21 0 0 0 0 0 0 0 0 0 0 0 0 0 0 21 0 0 0 0 0 0 0 0 0 0 0 0 0 0 0 0 0 0 0 0 0 0 -16 0 0 21 0 0 11 0 0 0 -8 0 0 0 0 0 0 0 0 0 0 0 0 0 0 0 0 0 0 0 0 8 0 0 0 0 0 0 0 0 0 0 0 0 0 0 0 0 0
-34.2615 17.3619 -6.3363 -19.9337 -87.9707 51.0290 0.0000 0.0000 0.0000 -15.6464 -9.1238 -43.2293 0.5424 4.7186 13.1077 -0.0069 2.1356 -2.4174 0.0035 0.3821 1.0498 0.0000 0.0000 0.0000 13.8905 18.6017 -51.1656 -3.0711 -10.8092 31.6391 -0.3209 -10.1721 -18.7649 -0.3363 -3.7268 10.3094 1.4004 -1.0005 20.7831 0.7953 -1.2313 4.8448 0.3870 -0.7282 -6.3532 1.1571 0.8875 1.8468 0.8087 1.0837 -17.2714 0.0194 0.2362 -5.5014 0.0000 0.0000 0.0000 -84.6894 0.1139 36.4694 22.9996 -34.0884 -7.1381 -0.0000 0.0000 -27.0300 20.3405 9.6976 3.5733 -7.1250 0.0000 -0.0000 -5.8379 40.2421 0.6875 0.0000 0.0000 0.0000 85.9885 1.6300 35.7225 -22.8208 33.8923 -7.0381 0.0000 -0.0000 -7.8745 -20.6675 -7.0214 2.6401 7.1250 -0.0000 -0.0000 5.2091 -37.4334 0.9732
-34.2655 17.3617 -6.3344 -19.1107 -88.0046 50.2851 0.0000 0.0000 0.0000 -15.7470 -9.0663 -43.3001 0.5375 4.6976 13.0481 -0.0064 2.0621 -2.3399 0.0037 0.3940 1.0826 0.0000 0.0000 0.0000 13.7603 18.6899 -51.2474 -3.0766 -10.8180 31.6686 -0.3210 -10.2305 -18.8301 -0.3368 -3.7293 10.3162 1.3415 -0.9877 20.7784 0.7971 -1.2237 4.8031 0.4209 -0.7228 -6.3948 1.1719 0.8810 2.0051 0.8186 1.0824 -17.3465 0.0194 0.2333 -5.5519 -0.0000 -0.0000 0.0000 -84.7177 0.1731 36.3553 23.1109 -34.2099 -7.2006 -0.0000 0.0000 -27.3976 19.6923 10.2505 3.6442 -7.1250 0.0000 -0.0000 -6.4891 40.7675 0.6805 -0.0000 -0.0000 0.0000 85.9744 1.5547 35.7019 -22.8066 33.8766 -7.0302 0.0000 -0.0000 -7.8320 -20.5924 -7.0603 2.6441 7.1250 -0.0000 -0.0000 5.2771 -37.4699 0.9813
-34.2701 17.3628 -6.3316 -18.8540 -87.9929 50.0626 0.0000 0.0000 0.0000 -15.8375 -8.9701 -43.3496 0.5355 4.6888 13.0231 -0.0049 1.9330 -2.2761 0.0043 0.4230 1.1624 0.0000 0.0000 0.0000 13.7127 18.7280 -51.2514 -3.0760 -10.8171 31.6655 -0.3244 -10.2393 -18.8780 -0.3409 -3.7517 10.3792 1.2771 -1.0013 20.5941 0.8323 -1.2633 4.9336 0.4994 -0.7429 -6.1550 1.2096 0.9379 2.0589 0.7344 1.1488 -17.5075 -0.0170 0.2651 -5.6106 0.0000 0.0000 0.0000 -84.7757 0.0497 36.4196 23.0309 -34.1225 -7.1556 -0.0000 0.0000 -27.0932 20.4239 9.6264 3.5631 -7.1250 0.0000 -0.0000 -5.7548 40.1739 0.6873 0.0000 0.0000 0.0000 85.9154 1.7675 35.8047 -22.7484 33.8125 -6.9978 0.0000 -0.0000 -7.8714 -20.6026 -7.0591 2.6451 7.1250 -0.0000 -0.0000 5.2684 -37.4692 0.9798
-34.2750 17.3637 -6.3284 -19.2080 -87.9810 50.4547 0.0000 0.0000 0.0000 -15.8802 -8.9027 -43.3899 0.5332 4.6791 12.9956 -0.0042 1.8480 -2.2092 0.0038 0.3955 1.0866 0.0000 0.0000 0.0000 13.6834 18.7811 -51.2624 -3.0752 -10.8158 31.6612 -0.3220 -10.2969 -18.9150 -0.3380 -3.7360 10.3352 1.3297 -1.0027 20.6800 0.8234 -1.2507 4.8873 0.4594 -0.7369 -6.2513 1.2170 0.9294 2.0265 0.7534 1.1416 -17.4267 -0.0118 0.2618 -5.5799 -0.0000 -0.0000 0.0000 -84.7577 0.1148 36.4062 23.0789 -34.1750 -7.1826 -0.0000 0.0000 -27.2536 20.0928 9.9084 3.6018 -7.1250 0.0000 -0.0000 -6.0855 40.4431 0.6866 -0.0000 -0.0000 0.0000 85.9281 1.6773 35.7885 -22.7219 33.7833 -6.9830 0.0000 -0.0000 -7.8534 -20.8179 -7.0546 2.6736 7.1250 -0.0000 -0.0000 5.0854 -37.4782 0.9444
-34.2797 17.3647 -6.3252 -19.3530 -87.9698 50.6385 0.0000 0.0000 0.0000 -15.9369 -8.8300 -43.4415 0.5319 4.6735 12.9796 -0.0033 1.7502 -2.1517 0.0037 0.3949 1.0851 0.0000 0.0000 0.0000 13.6517 18.8209 -51.2715 -3.0726 -10.8117 31.6474 -0.3209 -10.3343 -18.9430 -0.3376 -3.7341 10.3299 1.3380 -1.0076 20.6582 0.8339 -1.2563 4.9078 0.4666 -0.7400 -6.2175 1.2515 0.9293 2.1043 0.7314 1.1419 -17.5097 -0.0247 0.2595 -5.6189 0.0000 -0.0000 0.0000 -84.7751 0.1060 36.4182 23.0791 -34.1752 -7.1827 -0.0000 0.0000 -27.2451 20.1241 9.8776 3.5968 -7.1250 0.0000 -0.0000 -6.0535 40.4134 0.6874 0.0000 -0.0000 0.0000 85.9110 1.6996 35.8040 -22.6951 33.7537 -6.9681 0.0000 -0.0000 -7.8551 -20.8548 -7.0483 2.6764 7.1250 -0.0000 -0.0000 5.0535 -37.4739 0.9389
-34.2844 17.3660 -6.3216 -19.6876 -87.9507 51.0044 0.0000 0.0000 0.0000 -15.9812 -8.7603 -43.4876 0.5313 4.6706 12.9714 -0.0024 1.6551 -2.0997 0.0037 0.3913 1.0750 0.0000 0.0000 0.0000 13.6421 18.8459 -51.2688 -3.0685 -10.8051 31.6254 -0.3193 -10.3656 -18.9591 -0.3371 -3.7311 10.3214 1.3665 -1.0142 20.6483 0.8439 -1.2600 4.9290 0.4615 -0.7425 -6.1897 1.3037 0.9183 2.2119 0.7049 1.1281 -17.6235 -0.0414 0.2488 -5.6725 0.0000 0.0000 0.0000 -84.7868 0.0951 36.4514 23.0656 -34.1605 -7.1751 -0.0000 0.0000 -27.2000 20.1987 9.8073 3.5859 -7.1250 0.0000 -0.0000 -5.9778 40.3456 0.6888 0.0000 0.0000 0.0000 85.8986 1.7214 35.8087 -22.6728 33.7291 -6.9558 0.0000 -0.0000 -7.8585 -20.8628 -7.0382 2.6737 7.1250 -0.0000 -0.0000 5.0456 -37.4636 0.9387
-34.2893 17.3674 -6.3180 -20.0646 -87.9341 51.4133 0.0000 0.0000 0.0000 -16.0206 -8.6962 -43.5309 0.5306 4.6675 12.9627 -0.0017 1.5697 -2.0526 0.0036 0.3881 1.0663 0.0000 0.0000 0.0000 13.6320 18.8737 -51.2665 -3.0643 -10.7985 31.6032 -0.3173 -10.4009 -18.9758 -0.3357 -3.7234 10.2998 1.4012 -1.0184 20.6530 0.8507 -1.2587 4.9407 0.4486 -0.7426 -6.1800 1.3764 0.8919 2.3490 0.6761 1.0952 -17.7576 -0.0613 0.2271 -5.7377 -0.0000 0.0000 0.0000 -84.7920 0.0923 36.4951 23.0487 -34.1420 -7.1656 -0.0000 0.0000 -27.1576 20.2469 9.7532 3.5755 -7.1250 0.0000 -0.0000 -5.9277 40.2927 0.6907 -0.0000 0.0000 0.0000 85.8919 1.7276 35.7994 -22.6555 33.7099 -6.9461 0.0000 -0.0000 -7.8620 -20.8394 -7.0255 2.6657 7.1250 -0.0000 -0.0000 5.0640 -37.4487 0.9441
-34.2943 17.3688 -6.3144 -20.4843 -87.9175 51.8626 0.0000 0.0000 0.0000 -16.0543 -8.6370 -43.5704 0.5300 4.6652 12.9561 -0.0010 1.4911 -2.0119 0.0036 0.3857 1.0597 0.0000 0.0000 0.0000 13.6253 18.9003 -51.2595 -3.0597 -10.7911 31.5785 -0.3160 -10.4320 -18.9960 -0.3351 -3.7202 10.2909 1.4387 -1.0218 20.6559 0.8571 -1.2559 4.9546 0.4334 -0.7420 -6.1669 1.4607 0.8624 2.5060 0.6402 1.0582 -17.9127 -0.0852 0.2026 -5.8129 -0.0000 -0.0000 0.0000 -84.7947 0.0858 36.5495 23.0220 -34.1128 -7.1506 -0.0000 0.0000 -27.0975 20.3225 9.6727 3.5608 -7.1250 0.0000 -0.0000 -5.8499 40.2141 0.6929 -0.0000 -0.0000 0.0000 85.8870 1.7353 35.7846 -22.6426 33.6957 -6.9390 0.0000 -0.0000 -7.8661 -20.7923 -7.0161 2.6555 7.1250 -0.0000 -0.0000 5.1028 -37.4356 0.9530
-34.2993 17.3700 -6.3109 -20.8214 -87.9070 52.2342 0.0000 0.0000 0.0000 -16.0898 -8.5837 -43.6129 0.5296 4.6633 12.9508 -0.0004 1.4187 -1.9751 0.0035 0.3812 1.0474 0.0000 0.0000 0.0000 13.6101 18.9303 -51.2578 -3.0550 -10.7835 31.5531 -0.3152 -10.4625 -19.0203 -0.3349 -3.7190 10.2873 1.4758 -1.0223 20.6711 0.8584 -1.2488 4.9565 0.4121 -0.7392 -6.1735 1.5421 0.8318 2.6355 0.6058 1.0197 -18.0338 -0.1079 0.1783 -5.8729 -0.0000 -0.0000 0.0000 -84.7899 0.0893 36.6043 22.9983 -34.0870 -7.1374 -0.0000 0.0000 -27.0661 20.3446 9.6450 3.5549 -7.1250 0.0000 -0.0000 -5.8266 40.1868 0.6941 -0.0000 -0.0000 0.0000 85.8882 1.7259 35.7624 -22.6311 33.6829 -6.9326 0.0000 -0.0000 -7.8713 -20.7558 -7.0090 2.6478 7.1250 -0.0000 -0.0000 5.1329 -37.4258 0.9599
-34.3044 17.3710 -6.3077 -21.0646 -87.9054 52.5189 0.0000 0.0000 0.0000 -16.1293 -8.5347 -43.6615 0.5291 4.6612 12.9448 0.0001 1.3521 -1.9398 0.0034 0.3769 1.0356 0.0000 0.0000 0.0000 13.5809 18.9694 -51.2637 -3.0505 -10.7764 31.5293 -0.3153 -10.4912 -19.0529 -0.3354 -3.7217 10.2951 1.4982 -1.0201 20.6761 0.8588 -1.2413 4.9576 0.3980 -0.7359 -6.1752 1.5997 0.8101 2.7220 0.5803 0.9922 -18.1150 -0.1242 0.1611 -5.9131 0.0000 0.0000 0.0000 -84.7861 0.0898 36.6428 22.9795 -34.0664 -7.1268 -0.0000 0.0000 -27.0631 20.3235 9.6609 3.5567 -7.1250 0.0000 -0.0000 -5.8473 40.2019 0.6944 0.0000 0.0000 0.0000 85.8880 1.7162 35.7457 -22.6213 33.6720 -6.9272 0.0000 -0.0000 -7.8758 -20.7354 -7.0083 2.6447 7.1250 -0.0000 -0.0000 5.1502 -37.4238 0.9634
-34.3094 17.3719 -6.3044 -21.2670 -87.9053 52.7636 0.0000 0.0000 0.0000 -16.1709 -8.4867 -43.7097 0.5286 4.6589 12.9381 0.0005 1.2864 -1.9046 0.0033 0.3717 1.0213 0.0000 0.0000 0.0000 13.5551 18.9987 -51.2733 -3.0463 -10.7697 31.5071 -0.3165 -10.5061 -19.0828 -0.3366 -3.7282 10.3131 1.5162 -1.0182 20.6811 0.8593 -1.2352 4.9575 0.3868 -0.7332 -6.1782 1.6320 0.7994 2.7672 0.5604 0.9779 -18.1567 -0.1352 0.1526 -5.9339 -0.0000 0.0000 0.0000 -84.7853 0.0916 36.6634 22.9659 -34.0515 -7.1192 -0.0000 0.0000 -27.0828 20.2688 9.7100 3.5641 -7.1250 0.0000 -0.0000 -5.9022 40.2490 0.6941 -0.0000 0.0000 0.0000 85.8855 1.7026 35.7368 -22.6153 33.6654 -6.9238 0.0000 -0.0000 -7.8791 -20.7371 -7.0123 2.6464 7.1250 -0.0000 -0.0000 5.1492 -37.4281 0.9626
-34.3145 17.3727 -6.3015 -21.3219 -87.9131 52.8666 0.0000 0.0000 0.0000 -16.2225 -8.4380 -43.7644 0.5279 4.6558 12.9295 0.0009 1.2196 -1.8651 0.0032 0.3629 0.9972 0.0000 0.0000 0.0000 13.5165 19.0316 -51.2913 -3.0427 -10.7639 31.4878 -0.3181 -10.5189 -19.1152 -0.3380 -3.7360 10.3352 1.5191 -1.0142 20.6798 0.8582 -1.2293 4.9561 0.3825 -0.7304 -6.1791 1.6288 0.8006 2.7607 0.5546 0.9784 -18.1513 -0.1365 0.1536 -5.9310 0.0000 0.0000 0.0000 -84.7858 0.0939 36.6796 22.9513 -34.0356 -7.1110 -0.0000 0.0000 -27.1024 20.2298 9.7511 3.5715 -7.1250 0.0000 -0.0000 -5.9423 40.2890 0.6930 0.0000 0.0000 0.0000 85.8839 1.6896 35.7288 -22.6118 33.6616 -6.9219 0.0000 -0.0000 -7.8770 -20.7397 -7.0147 2.6477 7.1250 -0.0000 -0.0000 5.1472 -37.4308 0.9619
-34.3196 17.3736 -6.2987 -21.3865 -87.9195 52.9788 0.0000 0.0000 0.0000 -16.2740 -8.3878 -43.8167 0.5268 4.6513 12.9166 0.0013 1.1528 -1.8217 0.0030 0.3527 0.9690 0.0000 0.0000 0.0000 13.4829 19.0582 -51.3115 -3.0397 -10.7590 31.4714 -0.3198 -10.5267 -19.1428 -0.3393 -3.7431 10.3549 1.5216 -1.0106 20.6801 0.8574 -1.2240 4.9541 0.3790 -0.7278 -6.1814 1.6212 0.8028 2.7559 0.5528 0.9804 -18.1460 -0.1359 0.1554 -5.9285 0.0000 0.0000 0.0000 -84.7877 0.1000 36.6942 22.9353 -34.0180 -7.1021 -0.0000 0.0000 -27.1064 20.2228 9.7683 3.5764 -7.1250 0.0000 -0.0000 -5.9509 40.3065 0.6914 0.0000 0.0000 0.0000 85.8835 1.6743 35.7224 -22.6112 33.6608 -6.9216 0.0000 -0.0000 -7.8705 -20.7388 -7.0168 2.6483 7.1250 -0.0000 -0.0000 5.1482 -37.4330 0.9618
-34.3247 17.3742 -6.2963 -21.4428 -87.9304 53.0867 0.0000 0.0000 0.0000 -16.3227 -8.3414 -43.8692 0.5253 4.6448 12.8981 0.0015 1.0947 -1.7766 0.0028 0.3393 0.9323 0.0000 0.0000 0.0000 13.4385 19.1000 -51.3358 -3.0373 -10.7551 31.4585 -0.3209 -10.5464 -19.1768 -0.3406 -3.7503 10.3751 1.5124 -1.0046 20.6753 0.8564 -1.2180 4.9511 0.3815 -0.7247 -6.1820 1.6169 0.8043 2.7556 0.5489 0.9818 -18.1441 -0.1365 0.1567 -5.9279 -0.0000 0.0000 0.0000 -84.7879 0.1081 36.7105 22.9169 -33.9978 -7.0918 -0.0000 0.0000 -27.0952 20.2471 9.7442 3.5723 -7.1250 0.0000 -0.0000 -5.9263 40.2833 0.6919 -0.0000 0.0000 0.0000 85.8861 1.6595 35.7145 -22.6115 33.6612 -6.9218 0.0000 -0.0000 -7.8585 -20.7394 -7.0171 2.6485 7.1250 -0.0000 -0.0000 5.1477 -37.4333 0.9617
